<?xml version="1.0" encoding="UTF-8"?>
<svg xmlns="http://www.w3.org/2000/svg" width="216" height="70" viewBox="0 0 216 70" fill="none">
  <g clip-path="url(#clip0_997_13948)">
    <path d="M8.50014 1.44873L1.26086 5.63175L8.49596 9.81268L15.7457 5.62757L8.50014 1.44873Z" fill="#FA2EFD"></path>
    <path d="M37.4752 1.45703L30.2338 5.64005L37.471 9.82098L44.7207 5.63587L37.4752 1.45703Z" fill="#FA2EFD"></path>
    <path d="M2.48925 34.9272C1.69069 37.1891 1.25378 39.6203 1.25378 42.1561L1.26006 64.2L8.50979 68.3872L8.51606 43.9142C5.81518 41.4997 3.72053 38.4162 2.48925 34.9272Z" fill="#FA2EFD"></path>
    <path d="M8.51744 43.9165L8.51117 68.3896L15.7525 64.2045V48.202C13.0579 47.2529 10.6079 45.7854 8.51953 43.9186L8.51744 43.9165Z" fill="#02FEFF"></path>
    <path d="M37.465 25.9532V9.82107L30.2383 5.64014L30.232 21.6636C32.9266 22.6168 35.3766 24.0864 37.465 25.9532Z" fill="#02FEFF"></path>
    <path d="M44.7305 64.2023V45.2167L44.7138 42.1563C44.7138 30.1549 34.9847 20.4238 22.9813 20.4238C20.4435 20.4238 18.006 20.8586 15.742 21.6593V22.3659H15.7441V25.9907C15.7608 27.4729 16.1685 28.8944 16.8939 30.1319C21.1479 28.1606 26.1253 28.3592 30.231 30.7319L30.2415 30.7382C34.7255 33.3283 37.487 38.1133 37.4849 43.2914L37.4766 68.3833L44.7284 64.2023H44.7305Z" fill="#FA2EFD"></path>
    <path d="M29.0862 39.7001C24.8384 41.6735 19.8631 41.4791 15.7616 39.1085C11.2629 36.5101 8.49097 31.7083 8.49097 26.5135V9.81277L1.26215 5.63184L1.25797 24.6153L1.25378 27.6862C1.25378 39.6876 10.9828 49.4584 22.9863 49.4187C29.8137 49.3957 30.236 47.4683 30.236 47.4683V43.8936C30.2297 42.3927 29.8221 40.9502 29.0862 39.6981V39.7001Z" fill="#FA2EFD"></path>
    <path d="M30.2331 30.7317C26.1275 28.3611 21.1501 28.1625 16.8981 30.1317C17.6193 31.3589 18.6499 32.4041 19.9251 33.1399L19.946 33.1546L26.0564 36.6874C28.6402 38.1821 30.2311 40.9395 30.2331 43.9246L30.2373 64.2021L37.4787 68.3831L37.4871 43.3017C37.4871 38.1173 34.7235 33.3239 30.2331 30.7317Z" fill="#02FEFF"></path>
    <path d="M26.0567 36.6897L19.9463 33.1568L19.9254 33.1421C19.7644 33.0502 19.6098 32.9519 19.4571 32.8495C19.3735 32.793 19.2941 32.7324 19.2147 32.676C19.1478 32.6279 19.0788 32.5819 19.014 32.5317C18.9011 32.446 18.7924 32.354 18.6858 32.2621C18.6565 32.237 18.6251 32.214 18.5959 32.1889C18.4725 32.0802 18.3513 31.9673 18.2342 31.8502C18.2238 31.8398 18.2133 31.8314 18.2029 31.821C16.6497 30.2719 15.7445 28.1522 15.7445 25.9008V5.62744L8.48639 9.81255V26.5237C8.48639 31.7123 11.2542 36.5078 15.7487 39.1021C19.8522 41.4726 24.8296 41.6671 29.0796 39.6916C28.3604 38.4666 27.3298 37.4255 26.0588 36.6897H26.0567Z" fill="#02FEFF"></path>
    <path d="M43.483 34.9232C42.2539 31.4404 40.1613 28.3654 37.4646 25.953V9.82085L44.7227 5.63574L44.7164 27.686C44.7164 30.2175 44.2837 32.6487 43.4872 34.9064L43.483 34.9211V34.9232Z" fill="#FA2EFD"></path>
    <path d="M0.00872807 6.3571L0.00454714 24.6131L0.000366211 27.6861C0.000366211 30.1926 0.397555 32.6363 1.16266 34.9484C0.393374 37.273 0.000366211 39.6938 0.000366211 42.1563L0.00663761 64.9236L7.25428 69.1108L8.50856 69.8362L9.76284 69.1108L17.0042 64.9257V49.9036C18.9086 50.4116 20.8904 50.6729 22.9119 50.6729C22.9369 50.6729 22.9641 50.6729 22.9913 50.6729C25.5396 50.6645 27.5485 50.3948 28.9847 49.8743L28.9888 64.9257L36.2302 69.1066L37.4845 69.8299L38.7388 69.1066L45.9906 64.9257V45.2105L45.9739 42.1563C45.9739 39.629 45.562 37.1977 44.8074 34.9212C45.5788 32.5945 45.9739 30.1633 45.9739 27.6861L45.9801 6.3592V4.90841L44.7259 4.1872L37.4803 0.00836186L30.241 4.19138L28.9868 4.91677V6.36547L28.9826 19.966C27.0698 19.4497 25.0609 19.1717 22.9892 19.1717C20.9176 19.1717 18.9483 19.4392 17.0042 19.9619V4.90423L15.7499 4.18093L8.50229 0L1.26301 4.18302L0.00663761 4.9105V6.35501L0.00872807 6.3571ZM36.2135 23.3547C34.7439 22.3178 33.1656 21.4628 31.489 20.7959L31.4932 7.81625L36.2135 10.5464V23.3568V23.3547ZM43.4653 27.6882C43.4653 28.8589 43.3671 30.017 43.1726 31.1584C42.0062 29.0261 40.5031 27.0778 38.722 25.4033V10.5506L43.4695 7.80998L43.4632 27.6882H43.4653ZM37.4803 2.90575L42.2152 5.63798L37.474 8.37231L32.7496 5.64217L37.4824 2.90575H37.4803ZM14.4936 25.8988C14.4936 27.1656 14.7381 28.3969 15.2043 29.5362L15.1186 29.5759L15.7207 30.6002C15.7834 30.7131 15.8482 30.8239 15.9151 30.9326L16.3938 31.7479L16.4565 31.7186C16.467 31.7333 16.4795 31.7479 16.49 31.7625C16.5025 31.7772 16.515 31.7939 16.5255 31.8085C16.63 31.9423 16.7387 32.074 16.8516 32.2036C16.8746 32.2287 16.8955 32.2559 16.9185 32.281C17.0502 32.4273 17.184 32.5736 17.3241 32.7137C17.3366 32.7262 17.3491 32.7388 17.3638 32.7513C17.508 32.8935 17.6397 33.0168 17.7651 33.1255C17.7944 33.1506 17.8258 33.1757 17.8718 33.2133C17.9637 33.2928 18.0599 33.368 18.154 33.4454C18.1811 33.4663 18.2062 33.4893 18.2334 33.5102C18.2376 33.5143 18.2418 33.5185 18.248 33.5227C18.3045 33.5666 18.3609 33.6063 18.4195 33.6481L18.5428 33.7359C18.5762 33.761 18.6118 33.784 18.6452 33.8091C18.6766 33.83 18.7079 33.853 18.7393 33.876C18.7456 33.8802 18.7539 33.8864 18.7602 33.8906C18.9107 33.991 19.0654 34.0871 19.2222 34.1812C19.2285 34.1854 19.2368 34.1896 19.2431 34.1937L25.4309 37.7747C25.5772 37.8604 25.7214 37.9503 25.8615 38.0465C25.9054 38.0757 25.9493 38.1092 25.9911 38.1405C26.0852 38.2074 26.1793 38.2764 26.2712 38.3496C26.3214 38.3893 26.3674 38.429 26.4176 38.4708C26.4991 38.5398 26.5806 38.6088 26.6601 38.6799C26.7102 38.7259 26.7583 38.7719 26.8064 38.8179C26.8796 38.8889 26.9527 38.9621 27.0217 39.0373C27.0489 39.0666 27.0782 39.098 27.1053 39.1272C24.925 39.8443 22.6067 39.9718 20.3824 39.5265C20.3364 39.5161 20.2883 39.5098 20.2423 39.4993C20.0772 39.4638 19.91 39.4241 19.7448 39.3823C19.6675 39.3635 19.5922 39.3446 19.5149 39.3237C19.3664 39.284 19.218 39.2401 19.0696 39.1941C18.9776 39.1649 18.8856 39.1356 18.7936 39.1042C18.6578 39.0583 18.524 39.0123 18.3881 38.9621C18.2836 38.9224 18.179 38.8806 18.0745 38.8388C17.9533 38.7907 17.832 38.7405 17.7108 38.6882C17.5874 38.6339 17.4641 38.5754 17.3429 38.5189C17.2425 38.4708 17.1401 38.4269 17.0418 38.3768C16.8432 38.2764 16.6467 38.1698 16.4523 38.059C16.4293 38.0465 16.4063 38.0339 16.3833 38.0214C12.2881 35.655 9.74402 31.2462 9.74402 26.5155V10.5422L14.4936 7.80162V25.8988ZM8.50438 2.89738L13.2393 5.62753L8.49811 8.36186L3.77366 5.63171L8.50647 2.89529L8.50438 2.89738ZM2.50892 42.1563C2.50892 40.9961 2.60718 39.8443 2.7995 38.7091C3.81128 40.5592 5.08438 42.2776 6.60205 43.8203L6.60833 43.8266C6.66268 43.881 6.71494 43.9374 6.76929 43.9918C6.93026 44.1527 7.0954 44.3095 7.26055 44.4663L7.25428 66.2134L2.51311 63.4749L2.50892 42.1542V42.1563ZM14.4956 63.4791L9.76493 66.2134L9.7712 46.517C11.2492 47.5602 12.8337 48.4152 14.4977 49.0758V63.4791H14.4956ZM28.9805 47.0815C28.623 47.3699 27.26 48.1497 22.9808 48.1643C20.7482 48.1685 18.5679 47.8173 16.5088 47.1358L16.1659 47.0146C13.6469 46.1282 11.3558 44.7694 9.35102 42.9779C6.77974 40.6784 4.81471 37.7496 3.67122 34.5094L3.50817 34.0453C2.84967 32.0197 2.50683 29.879 2.50683 27.6861L2.51101 24.6131V7.8058L7.23337 10.5359V26.5238C7.23337 32.143 10.2562 37.3796 15.1228 40.1892H15.1291L15.1332 40.1955C15.1332 40.1955 15.1416 40.1996 15.1458 40.2017C15.3653 40.3272 15.5869 40.4463 15.8106 40.5613C15.8649 40.5885 15.9172 40.6157 15.9715 40.6428C16.1827 40.7473 16.3938 40.8477 16.6091 40.9418C16.6823 40.9731 16.7534 41.0045 16.8265 41.0358C17.0147 41.1153 17.2028 41.1926 17.3951 41.2658C17.4892 41.3013 17.5812 41.3348 17.6752 41.3682C17.8299 41.4247 17.9867 41.4769 18.1414 41.5271C18.2376 41.5584 18.3337 41.5898 18.432 41.6191C18.6201 41.6755 18.8104 41.7299 19.0006 41.778C19.1177 41.8093 19.2347 41.8365 19.3518 41.8657C19.471 41.895 19.5922 41.9201 19.7135 41.9452C19.9058 41.987 20.1002 42.0246 20.2925 42.0581C20.3824 42.0727 20.4723 42.0894 20.5622 42.102C20.8214 42.1417 21.0806 42.1751 21.3419 42.2044C21.3858 42.2086 21.4297 42.2149 21.4736 42.219C21.6325 42.2337 21.7914 42.2462 21.9523 42.2588C21.9774 42.2588 22.0046 42.2608 22.0297 42.2629C22.337 42.2817 22.6443 42.2922 22.9516 42.2922C22.9641 42.2922 22.9767 42.2922 22.9892 42.2922C22.9955 42.2922 23.0038 42.2922 23.0101 42.2922C23.284 42.2922 23.5599 42.2838 23.8338 42.2692H23.84C25.4141 42.1856 26.9799 41.8699 28.483 41.3118C28.5749 41.5459 28.6586 41.7842 28.7254 42.0267C28.7359 42.0643 28.7464 42.102 28.7547 42.1396C28.7819 42.242 28.807 42.3466 28.8279 42.4511C28.8362 42.4866 28.8446 42.5201 28.8509 42.5556C28.876 42.6831 28.8969 42.8106 28.9157 42.9402C28.922 42.9883 28.9282 43.0385 28.9345 43.0866C28.9449 43.1744 28.9533 43.2643 28.9617 43.3521C28.9658 43.4064 28.97 43.4608 28.9742 43.5172C28.9805 43.6343 28.9847 43.7534 28.9868 43.8726C28.9868 43.8789 28.9868 43.8872 28.9868 43.8935V47.0815H28.9805ZM36.2281 66.2113L31.4932 63.4791L31.489 43.9269C31.489 43.9144 31.489 43.9019 31.489 43.8914C31.489 43.8914 31.489 43.8851 31.489 43.881C31.4869 43.4587 31.4577 43.0406 31.4012 42.6288C31.3992 42.612 31.395 42.5953 31.3929 42.5786C31.3657 42.3884 31.3343 42.2002 31.2967 42.0142C31.28 41.9306 31.257 41.8469 31.2361 41.7612C31.2089 41.6442 31.1838 41.5271 31.1525 41.41C31.1065 41.2428 31.0542 41.0756 30.9999 40.9104C30.9894 40.8811 30.9811 40.8498 30.9727 40.8205C30.9121 40.6407 30.8431 40.463 30.772 40.2874L30.864 40.2456L30.172 39.0666L29.5951 38.0799L29.5303 38.1113C29.5303 38.1113 29.5156 38.0925 29.5094 38.082C29.4048 37.944 29.2941 37.8123 29.1812 37.6806C29.1561 37.6514 29.1331 37.6221 29.108 37.5928C29.0077 37.4779 28.9031 37.3692 28.7986 37.2605C28.7568 37.2186 28.7192 37.1727 28.6774 37.1308C28.5833 37.0368 28.483 36.9448 28.3847 36.8549C28.3283 36.8026 28.276 36.7504 28.2196 36.7002C28.1255 36.6187 28.0272 36.5392 27.9311 36.4619C27.8663 36.4096 27.8035 36.3532 27.7367 36.303C27.6321 36.2236 27.5234 36.1483 27.4147 36.071C27.352 36.0271 27.2914 35.979 27.2266 35.9372C27.0531 35.8201 26.8754 35.7093 26.6935 35.6048L20.6374 32.1033L20.5622 32.0573C20.5622 32.0573 20.5475 32.0468 20.5392 32.0427C20.3991 31.9611 20.2632 31.8754 20.1295 31.7834C20.0981 31.7604 20.0667 31.7395 20.0375 31.7165L20.0166 31.7019C19.9162 31.6308 19.8159 31.5577 19.7197 31.4824C19.6737 31.4469 19.6319 31.4113 19.588 31.3737C19.4793 31.2838 19.3706 31.1918 19.2682 31.0957C19.2619 31.0894 19.2535 31.0831 19.2473 31.0769C19.1218 30.9598 19.0006 30.8365 18.8835 30.7089H18.8814C18.8814 30.7089 18.9003 30.6985 18.9107 30.6964C18.9567 30.6818 19.0048 30.6692 19.0508 30.6546C19.2431 30.594 19.4375 30.5375 19.6319 30.4853C19.7135 30.4644 19.7929 30.4455 19.8744 30.4267C20.0375 30.387 20.2005 30.3494 20.3636 30.3159C20.4535 30.2971 20.5434 30.2825 20.6333 30.2658C20.79 30.2365 20.9489 30.2114 21.1057 30.1884C21.1977 30.1759 21.2897 30.1633 21.3796 30.1529C21.5405 30.1341 21.7015 30.1173 21.8604 30.1027C21.9482 30.0943 22.036 30.0881 22.1238 30.0818C22.2952 30.0713 22.4687 30.063 22.6401 30.0588C22.7154 30.0588 22.7906 30.0525 22.8659 30.0525C23.0749 30.0525 23.284 30.0525 23.493 30.063C23.5306 30.063 23.5704 30.063 23.608 30.0651C24.1139 30.0881 24.6198 30.1424 25.1215 30.2239C25.1717 30.2323 25.2218 30.2428 25.272 30.2511C25.4685 30.2846 25.665 30.3222 25.8594 30.3661C25.9263 30.3807 25.9932 30.3975 26.058 30.4142C26.2378 30.456 26.4155 30.502 26.5932 30.5521C26.6642 30.5731 26.7353 30.594 26.8064 30.6149C26.9799 30.6671 27.1513 30.7236 27.3227 30.7821C27.3917 30.8072 27.4628 30.8302 27.5318 30.8553C27.7053 30.918 27.8788 30.987 28.0502 31.058C28.1129 31.0852 28.1777 31.1103 28.2405 31.1375C28.4265 31.219 28.6126 31.3047 28.7965 31.3946C28.8425 31.4176 28.8906 31.4385 28.9366 31.4615C29.1665 31.5765 29.3965 31.6998 29.6202 31.8294C33.7028 34.1917 36.2386 38.59 36.2386 43.3082V44.2781L36.2323 66.2176L36.2281 66.2113ZM38.7367 66.2113L38.743 43.3019V43.2914C38.743 37.9858 36.0442 33.0231 31.6312 30.1236C31.3803 29.9585 31.1232 29.7996 30.8619 29.647C30.7156 29.5613 30.5671 29.4797 30.4187 29.4003C30.379 29.3794 30.3372 29.3585 30.2975 29.3376C30.1909 29.2811 30.0822 29.2247 29.9735 29.1724C29.9191 29.1453 29.8627 29.1202 29.8083 29.093C29.7142 29.047 29.6181 29.0031 29.524 28.9592C29.4613 28.932 29.4007 28.9049 29.338 28.8777C29.2481 28.838 29.1582 28.7983 29.0683 28.7606C29.0035 28.7334 28.9366 28.7063 28.8697 28.6791C28.7819 28.6436 28.6941 28.6101 28.6063 28.5746C28.5373 28.5495 28.4704 28.5223 28.4014 28.4993C28.3136 28.468 28.2279 28.4366 28.1401 28.4052C28.0711 28.3822 28.0021 28.3572 27.9311 28.3342C27.8433 28.3049 27.7555 28.2777 27.6677 28.2505C27.5987 28.2296 27.5276 28.2066 27.4586 28.1857C27.3687 28.1586 27.2788 28.1335 27.189 28.1105C27.12 28.0917 27.051 28.0729 26.982 28.054C26.8879 28.029 26.7939 28.006 26.6998 27.983C26.635 27.9662 26.5702 27.9495 26.5033 27.9349C26.3946 27.9098 26.2859 27.8868 26.1751 27.8638C26.1249 27.8534 26.0726 27.8408 26.0225 27.8325C25.8636 27.8011 25.7047 27.7718 25.5438 27.7467C25.4957 27.7384 25.4476 27.7321 25.4016 27.7258C25.2866 27.7091 25.1737 27.6903 25.0588 27.6757C24.9961 27.6673 24.9313 27.661 24.8685 27.6527C24.7682 27.6401 24.6699 27.6297 24.5696 27.6192C24.5027 27.613 24.4337 27.6067 24.3668 27.6004C24.2707 27.5921 24.1766 27.5837 24.0804 27.5774C24.0114 27.5732 23.9404 27.5691 23.8714 27.5649C23.7773 27.5586 23.6832 27.5544 23.5892 27.5502C23.5181 27.5481 23.447 27.5461 23.3759 27.544C23.2819 27.5419 23.1878 27.5398 23.0958 27.5398C23.0603 27.5398 23.0227 27.5398 22.9871 27.5398C22.962 27.5398 22.9369 27.5398 22.9119 27.5398C22.7049 27.5398 22.4979 27.544 22.2931 27.5544C22.0861 27.5628 21.8792 27.5774 21.6743 27.5962C21.6241 27.6004 21.574 27.6046 21.5259 27.6088C21.1099 27.6464 20.696 27.7028 20.2841 27.7739C20.2382 27.7823 20.1922 27.7906 20.1441 27.799C19.9413 27.8366 19.7385 27.8764 19.5358 27.9223H19.5274C19.3204 27.9704 19.1156 28.0227 18.9107 28.077C18.8668 28.0896 18.8208 28.1021 18.7769 28.1147C18.5825 28.169 18.386 28.2255 18.1937 28.2882C18.1853 28.2903 18.177 28.2924 18.1686 28.2965C17.9658 28.3613 17.7672 28.4324 17.5665 28.5056C17.5456 28.5139 17.5268 28.5181 17.5059 28.5265C17.1861 27.7196 17.0147 26.8583 17.0042 25.9949V22.5687C18.9358 21.9792 20.9426 21.6823 22.985 21.6823C25.4434 21.6823 27.8015 22.1171 29.9881 22.9157C30.1679 22.9805 30.3456 23.0495 30.5232 23.1205C38.0949 26.1287 43.4632 33.5311 43.4632 42.1668L43.4779 45.2209V63.4812L38.7367 66.2155V66.2113Z" fill="#21004A"></path>
  </g>
  <path d="M57.75 55.3543V13.5996H65.3952V30.2427H83.3909V13.5996H91.0361V55.3543H83.3909V37.241H65.3952V55.3543H57.75Z" fill="white"></path>
  <path d="M115.971 55.354V51.7666C114.206 54.7439 111.406 56.2362 107.561 56.2362C104.503 56.2362 101.915 55.2438 99.798 53.2663C97.6809 51.2888 96.6223 48.4145 96.6223 44.6507V25.6553H104.032V42.8864C104.032 47.2383 105.855 49.4143 109.502 49.4143C111.383 49.4143 112.876 48.7747 113.971 47.503C115.066 46.2312 115.618 44.511 115.618 42.3571V25.6553H123.028V55.354H115.971Z" fill="white"></path>
  <path d="M136.321 38.6525V55.3543H128.911V25.6556H135.968V29.7722C137.652 26.4422 140.518 24.7734 144.554 24.7734C147.531 24.7734 150.075 25.7658 152.17 27.7433C154.265 29.7208 155.316 32.5951 155.316 36.3589V55.3543H147.906V38.1232C147.906 33.7713 146.083 31.5953 142.437 31.5953C140.555 31.5953 139.063 32.2349 137.968 33.5066C136.872 34.7784 136.321 36.4986 136.321 38.6525Z" fill="white"></path>
  <path d="M159.129 40.4755C159.129 35.8884 160.533 32.1246 163.334 29.1841C166.134 26.2437 169.692 24.7734 174.007 24.7734C179.102 24.7734 183.123 27.0449 186.063 31.5953L180.3 35.0063C178.617 32.4995 176.477 31.2425 173.89 31.2425C171.692 31.2425 169.942 32.0879 168.626 33.7713C167.311 35.4547 166.656 37.6895 166.656 40.4755C166.656 43.2616 167.311 45.5038 168.626 47.2092C169.942 48.9147 171.692 49.7674 173.89 49.7674C176.558 49.7674 178.793 48.5104 180.594 46.0036L186.357 49.4146C183.218 53.965 179.102 56.2365 174.007 56.2365C169.692 56.2365 166.134 54.7662 163.334 51.8258C160.533 48.8853 159.129 45.0994 159.129 40.4755Z" fill="white"></path>
  <path d="M197.005 38.6524V55.3543H189.595V13.5996H197.005V29.0077C198.806 26.1848 201.555 24.7734 205.238 24.7734C208.215 24.7734 210.759 25.7658 212.854 27.7433C214.949 29.7207 216 32.595 216 36.3588V55.3543H208.59V38.1231C208.59 33.7712 206.767 31.5953 203.121 31.5953C201.239 31.5953 199.747 32.2348 198.651 33.5066C197.556 34.7783 197.005 36.4985 197.005 38.6524Z" fill="white"></path>
  <defs>
    <clipPath id="clip0_997_13948">
      <rect width="45.9881" height="69.8362" fill="white"></rect>
    </clipPath>
  </defs>
</svg>
