<?xml version="1.0" encoding="UTF-8"?>
<svg xmlns="http://www.w3.org/2000/svg" width="217" height="70" viewBox="0 0 217 70" fill="none">
  <g clip-path="url(#clip0_997_13719)">
    <path d="M8.52006 1.4519L1.26379 5.64474L8.51587 9.83548L15.7826 5.64055L8.52006 1.4519Z" fill="#FA2EFD"></path>
    <path d="M37.5631 1.46069L30.3047 5.65353L37.5589 9.84426L44.8257 5.64934L37.5631 1.46069Z" fill="#FA2EFD"></path>
    <path d="M2.49508 35.0093C1.69465 37.2765 1.25671 39.7134 1.25671 42.2551L1.263 64.3507L8.52974 68.5478L8.53603 44.0173C5.82881 41.5971 3.72925 38.5064 2.49508 35.0093Z" fill="#FA2EFD"></path>
    <path d="M8.53741 44.0195L8.53113 68.55L15.7895 64.3551V48.315C13.0886 47.3637 10.6328 45.8928 8.53951 44.0216L8.53741 44.0195Z" fill="#02FEFF"></path>
    <path d="M37.5529 26.014V9.84406L30.3092 5.65332L30.3029 21.7143C33.0038 22.6698 35.4596 24.1429 37.5529 26.014Z" fill="#02FEFF"></path>
    <path d="M44.8354 64.3529V45.3228L44.8186 42.2551C44.8186 30.2256 35.0668 20.4717 23.0352 20.4717C20.4914 20.4717 18.0482 20.9075 15.7789 21.71V22.4183H15.781V26.0516C15.7978 27.5373 16.2064 28.9621 16.9335 30.2026C21.1976 28.2266 26.1866 28.4257 30.3019 30.8039L30.3124 30.8102C34.807 33.4064 37.575 38.2027 37.5729 43.3929L37.5645 68.5436L44.8333 64.3529H44.8354Z" fill="#FA2EFD"></path>
    <path d="M29.1545 39.7932C24.8967 41.7713 19.9097 41.5764 15.7986 39.2003C11.2893 36.5957 8.51088 31.7827 8.51088 26.5757V9.83576L1.2651 5.64502L1.2609 24.6731L1.25671 27.7512C1.25671 39.7807 11.0086 49.5744 23.0402 49.5346C29.8836 49.5116 30.3069 47.5796 30.3069 47.5796V43.9966C30.3006 42.4921 29.892 41.0463 29.1545 39.7911V39.7932Z" fill="#FA2EFD"></path>
    <path d="M30.3041 30.8041C26.1888 28.428 21.1997 28.2289 16.9377 30.2028C17.6606 31.4327 18.6937 32.4804 19.9718 33.218L19.9928 33.2327L26.1176 36.7738C28.7074 38.272 30.302 41.0358 30.3041 44.028L30.3083 64.3531L37.5667 68.5438L37.575 43.4036C37.575 38.2071 34.805 33.4024 30.3041 30.8041Z" fill="#02FEFF"></path>
    <path d="M26.1179 36.776L19.9931 33.2348L19.9721 33.2201C19.8108 33.1279 19.6557 33.0294 19.5028 32.9268C19.419 32.8702 19.3393 32.8094 19.2597 32.7528C19.1927 32.7047 19.1235 32.6586 19.0586 32.6083C18.9454 32.5224 18.8365 32.4302 18.7296 32.338C18.7003 32.3128 18.6688 32.2898 18.6395 32.2646C18.5159 32.1557 18.3943 32.0425 18.277 31.9252C18.2665 31.9147 18.256 31.9063 18.2456 31.8958C16.6887 30.3432 15.7814 28.2185 15.7814 25.9618V5.64087L8.50629 9.8358V26.5862C8.50629 31.7869 11.2806 36.5937 15.7856 39.194C19.8988 41.5702 24.8879 41.765 29.1478 39.7849C28.427 38.557 27.3939 37.5135 26.12 36.776H26.1179Z" fill="#02FEFF"></path>
    <path d="M43.5851 35.0053C42.353 31.5144 40.2555 28.4321 37.5525 26.0141V9.8441L44.8276 5.64917L44.8213 27.7511C44.8213 30.2886 44.3876 32.7255 43.5892 34.9885L43.5851 35.0032V35.0053Z" fill="#FA2EFD"></path>
    <path d="M0.00874769 6.37202L0.00455695 24.6709L0.000366211 27.7511C0.000366211 30.2634 0.398486 32.7129 1.16539 35.0304C0.394296 37.3604 0.000366211 39.7869 0.000366211 42.2552L0.00665232 65.0759L7.2713 69.2729L8.52852 70L9.78574 69.2729L17.0441 65.078V50.0207C18.953 50.5298 20.9394 50.7917 22.9656 50.7917C22.9908 50.7917 23.018 50.7917 23.0452 50.7917C25.5995 50.7834 27.6131 50.5131 29.0527 49.9913L29.0568 65.078L36.3152 69.2687L37.5724 69.9937L38.8296 69.2687L46.0985 65.078V45.3166L46.0817 42.2552C46.0817 39.7219 45.6689 37.285 44.9125 35.0031C45.6857 32.671 46.0817 30.2341 46.0817 27.7511L46.088 6.37411V4.91993L44.8308 4.19702L37.5682 0.00838148L30.312 4.20122L29.0548 4.92831V6.3804L29.0506 20.0129C27.1333 19.4953 25.1196 19.2166 23.0431 19.2166C20.9666 19.2166 18.9928 19.4848 17.0441 20.0087V4.91574L15.7869 4.19074L8.52223 0L1.26597 4.19283L0.00665232 4.92202V6.36992L0.00874769 6.37202ZM36.2984 23.4095C34.8254 22.3702 33.2434 21.5132 31.5629 20.8447L31.5671 7.83459L36.2984 10.5711V23.4116V23.4095ZM43.5673 27.7532C43.5673 28.9266 43.4688 30.0874 43.2739 31.2315C42.1047 29.0942 40.5981 27.1413 38.8129 25.4629V10.5753L43.5715 7.8283L43.5652 27.7532H43.5673ZM37.5682 2.91256L42.3142 5.65121L37.5619 8.39195L32.8264 5.6554L37.5703 2.91256H37.5682ZM14.5276 25.9595C14.5276 27.2293 14.7727 28.4635 15.24 29.6055L15.1541 29.6453L15.7575 30.672C15.8204 30.7852 15.8854 30.8962 15.9524 31.0052L16.4322 31.8224L16.4951 31.793C16.5056 31.8077 16.5182 31.8224 16.5286 31.837C16.5412 31.8517 16.5538 31.8685 16.5643 31.8831C16.669 32.0172 16.778 32.1493 16.8911 32.2792C16.9142 32.3043 16.9351 32.3315 16.9582 32.3567C17.0902 32.5034 17.2243 32.65 17.3647 32.7904C17.3773 32.803 17.3898 32.8156 17.4045 32.8281C17.5491 32.9706 17.6811 33.0943 17.8068 33.2032C17.8361 33.2284 17.8676 33.2535 17.9137 33.2912C18.0059 33.3709 18.1023 33.4463 18.1965 33.5238C18.2238 33.5448 18.2489 33.5678 18.2762 33.5888C18.2804 33.593 18.2846 33.5971 18.2908 33.6013C18.3474 33.6453 18.404 33.6852 18.4627 33.7271L18.5863 33.8151C18.6198 33.8402 18.6554 33.8633 18.689 33.8884C18.7204 33.9094 18.7518 33.9324 18.7833 33.9555C18.7895 33.9597 18.7979 33.9659 18.8042 33.9701C18.9551 34.0707 19.1101 34.1671 19.2673 34.2614C19.2736 34.2656 19.2819 34.2698 19.2882 34.274L25.4905 37.8633C25.6372 37.9492 25.7818 38.0393 25.9222 38.1357C25.9662 38.1651 26.0102 38.1986 26.0521 38.23C26.1464 38.2971 26.2407 38.3662 26.3329 38.4395C26.3832 38.4794 26.4293 38.5192 26.4795 38.5611C26.5613 38.6302 26.643 38.6994 26.7226 38.7706C26.7729 38.8167 26.8211 38.8628 26.8693 38.9089C26.9426 38.9802 27.016 39.0535 27.0851 39.1289C27.1123 39.1583 27.1417 39.1897 27.1689 39.219C24.9834 39.9377 22.6597 40.0656 20.4302 39.6192C20.3841 39.6088 20.3359 39.6025 20.2898 39.592C20.1243 39.5564 19.9567 39.5166 19.7911 39.4747C19.7136 39.4558 19.6382 39.4369 19.5606 39.416C19.4119 39.3762 19.2631 39.3322 19.1143 39.2861C19.0221 39.2567 18.9299 39.2274 18.8377 39.196C18.7015 39.1499 18.5674 39.1038 18.4312 39.0535C18.3265 39.0137 18.2217 38.9718 18.1169 38.9299C17.9954 38.8817 17.8739 38.8314 17.7523 38.779C17.6287 38.7245 17.5051 38.6658 17.3835 38.6093C17.283 38.5611 17.1803 38.5171 17.0818 38.4668C16.8828 38.3662 16.6858 38.2593 16.4909 38.1483C16.4679 38.1357 16.4448 38.1231 16.4218 38.1106C12.3169 35.7386 9.76688 31.3195 9.76688 26.5777V10.5669L14.5276 7.81992V25.9595ZM8.52433 2.90418L13.2703 5.64073L8.51804 8.38148L3.78251 5.64492L8.52642 2.90209L8.52433 2.90418ZM2.51481 42.2552C2.51481 41.0923 2.61329 39.9377 2.80607 38.8C3.82022 40.6544 5.0963 42.3767 6.61754 43.9231L6.62383 43.9294C6.67831 43.9839 6.73069 44.0405 6.78517 44.095C6.94651 44.2563 7.11205 44.4134 7.27758 44.5706L7.2713 66.3687L2.519 63.6238L2.51481 42.2531V42.2552ZM14.5297 63.628L9.78783 66.3687L9.79412 46.6262C11.2755 47.6717 12.8638 48.5288 14.5317 49.1909V63.628H14.5297ZM29.0485 47.1919C28.6902 47.4811 27.324 48.2626 23.0348 48.2773C20.7969 48.2815 18.6114 47.9295 16.5475 47.2464L16.2039 47.1249C13.6789 46.2364 11.3824 44.8744 9.37295 43.0787C6.79565 40.7738 4.826 37.8382 3.67983 34.5904L3.5164 34.1252C2.85635 32.0948 2.51271 29.9491 2.51271 27.7511L2.5169 24.6709V7.82411L7.25034 10.5607V26.586C7.25034 32.2184 10.2802 37.4673 15.1583 40.2835H15.1646L15.1687 40.2898C15.1687 40.2898 15.1771 40.2939 15.1813 40.296C15.4013 40.4218 15.6234 40.5412 15.8476 40.6564C15.9021 40.6837 15.9545 40.7109 16.009 40.7382C16.2206 40.8429 16.4322 40.9435 16.6481 41.0378C16.7214 41.0692 16.7927 41.1007 16.866 41.1321C17.0546 41.2117 17.2432 41.2892 17.4359 41.3626C17.5302 41.3982 17.6224 41.4317 17.7167 41.4653C17.8718 41.5218 18.0289 41.5742 18.184 41.6245C18.2804 41.6559 18.3768 41.6874 18.4752 41.7167C18.6638 41.7733 18.8545 41.8278 19.0452 41.876C19.1625 41.9074 19.2799 41.9346 19.3972 41.964C19.5166 41.9933 19.6382 42.0184 19.7597 42.0436C19.9525 42.0855 20.1473 42.1232 20.3401 42.1567C20.4302 42.1714 20.5203 42.1882 20.6104 42.2007C20.8702 42.2405 21.1301 42.2741 21.392 42.3034C21.436 42.3076 21.48 42.3139 21.524 42.3181C21.6832 42.3327 21.8425 42.3453 22.0038 42.3579C22.029 42.3579 22.0562 42.36 22.0814 42.3621C22.3894 42.3809 22.6974 42.3914 23.0054 42.3914C23.018 42.3914 23.0306 42.3914 23.0431 42.3914C23.0494 42.3914 23.0578 42.3914 23.0641 42.3914C23.3386 42.3914 23.6152 42.383 23.8897 42.3684H23.896C25.4738 42.2845 27.0432 41.9682 28.5498 41.4087C28.642 41.6434 28.7258 41.8822 28.7928 42.1253C28.8033 42.163 28.8138 42.2007 28.8222 42.2385C28.8494 42.3411 28.8745 42.4459 28.8955 42.5507C28.9039 42.5863 28.9123 42.6198 28.9186 42.6554C28.9437 42.7833 28.9647 42.9111 28.9835 43.041C28.9898 43.0892 28.9961 43.1395 29.0024 43.1877C29.0128 43.2757 29.0212 43.3658 29.0296 43.4538C29.0338 43.5082 29.038 43.5627 29.0422 43.6193C29.0485 43.7366 29.0527 43.8561 29.0548 43.9755C29.0548 43.9818 29.0548 43.9902 29.0548 43.9965V47.1919H29.0485ZM36.3131 66.3666L31.5671 63.628L31.5629 44.03C31.5629 44.0174 31.5629 44.0049 31.5629 43.9944C31.5629 43.9944 31.5629 43.9881 31.5629 43.9839C31.5608 43.5606 31.5315 43.1416 31.4749 42.7288C31.4728 42.712 31.4686 42.6952 31.4665 42.6785C31.4393 42.4878 31.4079 42.2992 31.3701 42.1127C31.3534 42.0289 31.3303 41.9451 31.3094 41.8592C31.2821 41.7419 31.257 41.6245 31.2256 41.5072C31.1795 41.3395 31.1271 41.1719 31.0726 41.0064C31.0621 40.977 31.0537 40.9456 31.0454 40.9163C30.9846 40.7361 30.9154 40.558 30.8442 40.382L30.9364 40.34L30.2428 39.1583L29.6645 38.1692L29.5995 38.2007C29.5995 38.2007 29.5849 38.1818 29.5786 38.1713C29.4738 38.033 29.3628 37.901 29.2496 37.769C29.2245 37.7397 29.2014 37.7104 29.1763 37.681C29.0757 37.5658 28.9709 37.4568 28.8662 37.3479C28.8243 37.306 28.7865 37.2599 28.7446 37.2179C28.6503 37.1237 28.5498 37.0315 28.4513 36.9414C28.3947 36.889 28.3423 36.8366 28.2858 36.7863C28.1915 36.7046 28.093 36.625 27.9966 36.5474C27.9316 36.495 27.8688 36.4385 27.8017 36.3882C27.6969 36.3086 27.588 36.2331 27.479 36.1556C27.4162 36.1116 27.3554 36.0634 27.2905 36.0215C27.1165 35.9042 26.9384 35.7931 26.7561 35.6883L20.6858 32.1786L20.6104 32.1325C20.6104 32.1325 20.5957 32.122 20.5874 32.1178C20.447 32.0361 20.3108 31.9502 20.1767 31.858C20.1452 31.8349 20.1138 31.814 20.0845 31.7909L20.0635 31.7763C19.9629 31.705 19.8624 31.6317 19.766 31.5563C19.7199 31.5206 19.678 31.485 19.634 31.4473C19.525 31.3572 19.4161 31.265 19.3134 31.1686C19.3071 31.1623 19.2987 31.156 19.2924 31.1498C19.1667 31.0324 19.0452 30.9088 18.9278 30.781H18.9257C18.9257 30.781 18.9446 30.7705 18.9551 30.7684C19.0012 30.7537 19.0494 30.7412 19.0955 30.7265C19.2882 30.6657 19.4831 30.6092 19.678 30.5568C19.7597 30.5358 19.8393 30.517 19.921 30.4981C20.0845 30.4583 20.2479 30.4206 20.4114 30.387C20.5015 30.3682 20.5916 30.3535 20.6817 30.3368C20.8388 30.3074 20.9981 30.2823 21.1552 30.2592C21.2474 30.2467 21.3396 30.2341 21.4297 30.2236C21.591 30.2047 21.7524 30.188 21.9116 30.1733C21.9996 30.1649 22.0876 30.1586 22.1757 30.1524C22.3475 30.1419 22.5214 30.1335 22.6932 30.1293C22.7686 30.1293 22.8441 30.123 22.9195 30.123C23.129 30.123 23.3386 30.123 23.5481 30.1335C23.5858 30.1335 23.6257 30.1335 23.6634 30.1356C24.1704 30.1587 24.6775 30.2131 25.1804 30.2948C25.2307 30.3032 25.281 30.3137 25.3313 30.3221C25.5282 30.3556 25.7252 30.3933 25.9201 30.4373C25.9871 30.452 26.0542 30.4688 26.1191 30.4855C26.2993 30.5274 26.4774 30.5735 26.6556 30.6238C26.7268 30.6448 26.798 30.6657 26.8693 30.6867C27.0432 30.7391 27.215 30.7956 27.3868 30.8543C27.456 30.8795 27.5272 30.9025 27.5964 30.9277C27.7703 30.9905 27.9442 31.0597 28.116 31.1309C28.1789 31.1581 28.2438 31.1833 28.3067 31.2105C28.4932 31.2922 28.6797 31.3782 28.8641 31.4683C28.9102 31.4913 28.9584 31.5123 29.0045 31.5353C29.235 31.6506 29.4654 31.7742 29.6896 31.9041C33.7819 34.2719 36.3236 38.6805 36.3236 43.4098V44.382L36.3173 66.3729L36.3131 66.3666ZM38.8275 66.3666L38.8338 43.4035V43.393C38.8338 38.075 36.1287 33.1005 31.7054 30.1943C31.4539 30.0287 31.1962 29.8695 30.9343 29.7165C30.7876 29.6306 30.6388 29.5489 30.4901 29.4693C30.4503 29.4483 30.4084 29.4274 30.3685 29.4064C30.2617 29.3498 30.1527 29.2933 30.0438 29.2409C29.9893 29.2136 29.9327 29.1885 29.8782 29.1613C29.7839 29.1152 29.6875 29.0712 29.5933 29.0271C29.5304 28.9999 29.4696 28.9727 29.4068 28.9454C29.3167 28.9056 29.2266 28.8658 29.1365 28.8281C29.0715 28.8008 29.0045 28.7736 28.9374 28.7464C28.8494 28.7108 28.7614 28.6772 28.6734 28.6416C28.6042 28.6165 28.5372 28.5892 28.468 28.5662C28.38 28.5347 28.2941 28.5033 28.2061 28.4719C28.137 28.4488 28.0678 28.4237 27.9966 28.4006C27.9086 28.3713 27.8206 28.3441 27.7326 28.3168C27.6634 28.2959 27.5922 28.2728 27.523 28.2519C27.4329 28.2246 27.3428 28.1995 27.2527 28.1764C27.1836 28.1576 27.1144 28.1387 27.0453 28.1199C26.951 28.0947 26.8567 28.0717 26.7624 28.0486C26.6975 28.0319 26.6325 28.0151 26.5655 28.0004C26.4565 27.9753 26.3475 27.9522 26.2365 27.9292C26.1862 27.9187 26.1338 27.9061 26.0835 27.8977C25.9243 27.8663 25.765 27.837 25.6037 27.8118C25.5555 27.8035 25.5073 27.7972 25.4612 27.7909C25.3459 27.7741 25.2328 27.7553 25.1176 27.7406C25.0547 27.7322 24.9897 27.7259 24.9269 27.7175C24.8263 27.705 24.7278 27.6945 24.6272 27.684C24.5602 27.6777 24.491 27.6714 24.424 27.6652C24.3276 27.6568 24.2333 27.6484 24.1369 27.6421C24.0678 27.6379 23.9965 27.6337 23.9274 27.6295C23.8331 27.6233 23.7388 27.6191 23.6445 27.6149C23.5733 27.6128 23.502 27.6107 23.4308 27.6086C23.3365 27.6065 23.2422 27.6044 23.15 27.6044C23.1144 27.6044 23.0767 27.6044 23.041 27.6044C23.0159 27.6044 22.9908 27.6044 22.9656 27.6044C22.7582 27.6044 22.5507 27.6086 22.3454 27.6191C22.1379 27.6274 21.9305 27.6421 21.7251 27.661C21.6749 27.6652 21.6246 27.6694 21.5764 27.6735C21.1594 27.7113 20.7445 27.7678 20.3317 27.8391C20.2856 27.8475 20.2395 27.8558 20.1913 27.8642C19.9881 27.9019 19.7848 27.9417 19.5816 27.9878H19.5732C19.3658 28.036 19.1604 28.0884 18.9551 28.1429C18.9111 28.1555 18.865 28.1681 18.821 28.1806C18.6261 28.2351 18.4291 28.2917 18.2364 28.3545C18.228 28.3566 18.2196 28.3587 18.2112 28.3629C18.008 28.4279 17.8089 28.4991 17.6077 28.5725C17.5868 28.5808 17.5679 28.585 17.547 28.5934C17.2264 27.7846 17.0546 26.9213 17.0441 26.0559V22.6216C18.9802 22.0307 20.9918 21.7332 23.0389 21.7332C25.5031 21.7332 27.8667 22.169 30.0584 22.9694C30.2386 23.0344 30.4167 23.1035 30.5948 23.1748C38.1843 26.19 43.5652 33.6097 43.5652 42.2657L43.5798 45.327V63.6301L38.8275 66.3708V66.3666Z" fill="#21004A"></path>
  </g>
  <path d="M57.8854 55.4842V13.6316H65.5486V30.3137H83.5865V13.6316H91.2496V55.4842H83.5865V37.3284H65.5486V55.4842H57.8854Z" fill="#1D0547"></path>
  <path d="M116.243 55.4842V51.8885C114.474 54.8727 111.667 56.3685 107.813 56.3685C104.748 56.3685 102.154 55.3737 100.032 53.3916C97.91 51.4095 96.8489 48.5285 96.8489 44.7558V25.7158H104.276V42.9874C104.276 47.3495 106.104 49.5306 109.758 49.5306C111.645 49.5306 113.141 48.8895 114.238 47.6148C115.336 46.34 115.889 44.6158 115.889 42.4569V25.7158H123.316V55.4842H116.243Z" fill="#1D0547"></path>
  <path d="M136.641 38.7431V55.4842H129.213V25.7158H136.287V29.8421C137.974 26.5042 140.848 24.8315 144.893 24.8315C147.878 24.8315 150.427 25.8263 152.527 27.8084C154.627 29.7905 155.681 32.6715 155.681 36.4442V55.4842H148.253V38.2126C148.253 33.8505 146.426 31.6694 142.771 31.6694C140.885 31.6694 139.389 32.3105 138.291 33.5852C137.193 34.86 136.641 36.5842 136.641 38.7431Z" fill="#1D0547"></path>
  <path d="M159.502 40.5705C159.502 35.9726 160.909 32.2 163.717 29.2526C166.524 26.3052 170.09 24.8315 174.416 24.8315C179.522 24.8315 183.552 27.1084 186.5 31.6694L180.723 35.0884C179.036 32.5758 176.891 31.3158 174.298 31.3158C172.095 31.3158 170.341 32.1631 169.022 33.8505C167.703 35.5379 167.047 37.7779 167.047 40.5705C167.047 43.3631 167.703 45.6105 169.022 47.32C170.341 49.0294 172.095 49.8842 174.298 49.8842C176.972 49.8842 179.212 48.6242 181.018 46.1115L186.795 49.5305C183.648 54.0915 179.522 56.3684 174.416 56.3684C170.09 56.3684 166.524 54.8947 163.717 51.9473C160.909 49 159.502 45.2052 159.502 40.5705Z" fill="#1D0547"></path>
  <path d="M197.467 38.7432V55.4842H190.039V13.6316H197.467V29.0758C199.272 26.2463 202.028 24.8316 205.719 24.8316C208.703 24.8316 211.253 25.8263 213.353 27.8084C215.453 29.7905 216.507 32.6716 216.507 36.4442V55.4842H209.079V38.2126C209.079 33.8505 207.252 31.6695 203.597 31.6695C201.711 31.6695 200.215 32.3105 199.117 33.5853C198.019 34.86 197.467 36.5842 197.467 38.7432Z" fill="#1D0547"></path>
  <defs>
    <clipPath id="clip0_997_13719">
      <rect width="46.096" height="70" fill="white"></rect>
    </clipPath>
  </defs>
</svg>
